<svg xmlns="http://www.w3.org/2000/svg" width="1200" height="252" viewBox="0 0 1200 252" role="img" aria-labelledby="t d" xmlns:c2pa="http://c2pa.org/manifest"><metadata><c2pa:manifest>AAAWgmp1bWIAAAAeanVtZGMycGEAEQAQgAAAqgA4m3EDYzJwYQAAABZcanVtYgAAAEdqdW1kYzJtYQARABCAAACqADibcQN1cm46YzJwYTo2ZDc0YzE5Ny01OTkzLTQyYmQtODM2My0xZTExYzFlY2U1YzUAAAADl2p1bWIAAAApanVtZGMyYXMAEQAQgAAAqgA4m3EDYzJwYS5hc3NlcnRpb25zAAAAALxqdW1iAAAARGp1bWRjYm9yABEAEIAAAKoAOJtxE2MycGEuaW5ncmVkaWVudC52MwAAAAAYYzJzaEEMvDcfpKE/++j1YZFsW00AAABwY2JvcqNpZGM6Zm9ybWF0bWltYWdlL3N2Zyt4bWxqaW5zdGFuY2VJRHgseG1wOmlpZDplZGY0MzVmNi1jMjFiLTQ1N2UtOWFkZS1iNWYyODk4MDg1YTBscmVsYXRpb25zaGlwaHBhcmVudE9mAAAB4mp1bWIAAABBanVtZGNib3IAEQAQgAAAqgA4m3ETYzJwYS5hY3Rpb25zLnYyAAAAABhjMnNoV173NwfQFhfKWugVOn2dWAAAAZljYm9yomdhY3Rpb25zgqJmYWN0aW9ua2MycGEub3BlbmVkanBhcmFtZXRlcnOha2luZ3JlZGllbnRzgaJjdXJseC1zZWxmI2p1bWJmPWMycGEuYXNzZXJ0aW9ucy9jMnBhLmluZ3JlZGllbnQudjNkaGFzaFggNWadD0SyBkpdbF1jxOr4bO3kAUu6Te8Hgfd0vSMsi16kZmFjdGlvbngdY29tLmFudGhyb3BpYy5jbGF1ZGUucHJvdmlkZWRqcGFyYW1ldGVyc6F4H2NvbS5hbnRocm9waWMub3JpZ2luLWNvbmZpZGVuY2VndW5rbm93bmtkZXNjcmlwdGlvbnhmQ2xhdWRlIHByb3ZpZGVkIHRoaXMgZmlsZSBhdCB0aGUgcmVxdWVzdCBvZiBhIHVzZXIgYW5kIG1heSBoYXZlIGNyZWF0ZWQgb3IgbW9kaWZpZWQgdGhlIGZpbGUgY29udGVudHMubXNvZnR3YXJlQWdlbnShZG5hbWVmQ2xhdWRlcmFsbEFjdGlvbnNJbmNsdWRlZPUAAADIanVtYgAAAEBqdW1kY2JvcgARABCAAACqADibcRNjMnBhLmhhc2guZGF0YQAAAAAYYzJzaCRvO1AWMwsBP00N5wX1mUsAAACAY2JvcqVjYWxnZnNoYTI1NmNwYWRNAAAAAAAAAAAAAAAAAGRoYXNoWCDWWkkr9EaasoABXQJloLn4Nvf+f/DKpa1U7hK3AshFKmRuYW1lbmp1bWJmIG1hbmlmZXN0amV4Y2x1c2lvbnOBomVzdGFydBi5Zmxlbmd0aBkeBAAAAj5qdW1iAAAAJ2p1bWRjMmNsABEAEIAAAKoAOJtxA2MycGEuY2xhaW0udjIAAAACD2Nib3KlY2FsZ2ZzaGEyNTZpc2lnbmF0dXJleE1zZWxmI2p1bWJmPS9jMnBhL3VybjpjMnBhOjZkNzRjMTk3LTU5OTMtNDJiZC04MzYzLTFlMTFjMWVjZTVjNS9jMnBhLnNpZ25hdHVyZWppbnN0YW5jZUlEeCx4bXA6aWlkOjJmYzNhNWMxLTMwODUtNDQ4ZC1iYjMzLTlmZWEwNTI5OTBiMXJjcmVhdGVkX2Fzc2VydGlvbnODomN1cmx4LXNlbGYjanVtYmY9YzJwYS5hc3NlcnRpb25zL2MycGEuaW5ncmVkaWVudC52M2RoYXNoWCA1Zp0PRLIGSl1sXWPE6vhs7eQBS7pN7weB93S9IyyLXqJjdXJseCpzZWxmI2p1bWJmPWMycGEuYXNzZXJ0aW9ucy9jMnBhLmFjdGlvbnMudjJkaGFzaFgg+y/pmriErcQP2gCsqiKcx5sMdfDBH1ZHzyQWGW9rnvaiY3VybHgpc2VsZiNqdW1iZj1jMnBhLmFzc2VydGlvbnMvYzJwYS5oYXNoLmRhdGFkaGFzaFggO5MMNNuA6194WPxvFBTt9KgxV305YHBYuUDD+3Klx7l0Y2xhaW1fZ2VuZXJhdG9yX2luZm+jZG5hbWVvQW50aHJvcGljIEZpbGVzZ3ZlcnNpb25lMS4wLjBrc3BlY1ZlcnNpb25lMi40LjAAABA4anVtYgAAAChqdW1kYzJjcwARABCAAACqADibcQNjMnBhLnNpZ25hdHVyZQAAABAIY2JvctKEWQISogEmGCFZAgowggIGMIIBjaADAgECAhRA5aAK7sI50L64g/oGQgU9Z1UTADAKBggqhkjOPQQDAzBJMRcwFQYDVQQKEw5BbnRocm9waWMsIFBCQzEuMCwGA1UEAxMlQW50aHJvcGljIENvbnRlbnQgQ3JlZGVudGlhbHMgUm9vdCBDQTAeFw0yNjA4MDcxODQzNTZaFw0yODA4MDYxOTQzNTZaMEQxFzAVBgNVBAoTDkFudGhyb3BpYywgUEJDMSkwJwYDVQQDEyBBbnRocm9waWMgQ2xhdWRlIENvbnRlbnQgU2lnbmluZzBZMBMGByqGSM49AgEGCCqGSM49AwEHA0IABJh6CmvLUBgFFNU0vUKlOVtE6djd17L5SuwX0LemFisBM3dkd/3cyjxFA3Qo5S46fX0/ihY0VZ7mfb9KF703t5OjWDBWMA4GA1UdDwEB/wQEAwIHgDAVBgNVHSUEDjAMBgorBgEEAYPoXgIBMAwGA1UdEwEB/wQCMAAwHwYDVR0jBBgwFoAUzlHiBIFOZFsj+OPEz5o+nMHXXMIwCgYIKoZIzj0EAwMDZwAwZAIwMXMdFJ4BetLLVY7ORuE9noqbbAZOZn/aArXyTwFAZfKrPzxF2vPoJNf1+UCdg1XGAjBwX1zd9WGqYkqmL5SFqw1QySjr1zJfpJM9+1rdDwSPLMOPOjKuiXjoU/pUUeG9RwmhY3BhZFkNngAAAAAAAAAAAAAAAAAAAAAAAAAAAAAAAAAAAAAAAAAAAAAAAAAAAAAAAAAAAAAAAAAAAAAAAAAAAAAAAAAAAAAAAAAAAAAAAAAAAAAAAAAAAAAAAAAAAAAAAAAAAAAAAAAAAAAAAAAAAAAAAAAAAAAAAAAAAAAAAAAAAAAAAAAAAAAAAAAAAAAAAAAAAAAAAAAAAAAAAAAAAAAAAAAAAAAAAAAAAAAAAAAAAAAAAAAAAAAAAAAAAAAAAAAAAAAAAAAAAAAAAAAAAAAAAAAAAAAAAAAAAAAAAAAAAAAAAAAAAAAAAAAAAAAAAAAAAAAAAAAAAAAAAAAAAAAAAAAAAAAAAAAAAAAAAAAAAAAAAAAAAAAAAAAAAAAAAAAAAAAAAAAAAAAAAAAAAAAAAAAAAAAAAAAAAAAAAAAAAAAAAAAAAAAAAAAAAAAAAAAAAAAAAAAAAAAAAAAAAAAAAAAAAAAAAAAAAAAAAAAAAAAAAAAAAAAAAAAAAAAAAAAAAAAAAAAAAAAAAAAAAAAAAAAAAAAAAAAAAAAAAAAAAAAAAAAAAAAAAAAAAAAAAAAAAAAAAAAAAAAAAAAAAAAAAAAAAAAAAAAAAAAAAAAAAAAAAAAAAAAAAAAAAAAAAAAAAAAAAAAAAAAAAAAAAAAAAAAAAAAAAAAAAAAAAAAAAAAAAAAAAAAAAAAAAAAAAAAAAAAAAAAAAAAAAAAAAAAAAAAAAAAAAAAAAAAAAAAAAAAAAAAAAAAAAAAAAAAAAAAAAAAAAAAAAAAAAAAAAAAAAAAAAAAAAAAAAAAAAAAAAAAAAAAAAAAAAAAAAAAAAAAAAAAAAAAAAAAAAAAAAAAAAAAAAAAAAAAAAAAAAAAAAAAAAAAAAAAAAAAAAAAAAAAAAAAAAAAAAAAAAAAAAAAAAAAAAAAAAAAAAAAAAAAAAAAAAAAAAAAAAAAAAAAAAAAAAAAAAAAAAAAAAAAAAAAAAAAAAAAAAAAAAAAAAAAAAAAAAAAAAAAAAAAAAAAAAAAAAAAAAAAAAAAAAAAAAAAAAAAAAAAAAAAAAAAAAAAAAAAAAAAAAAAAAAAAAAAAAAAAAAAAAAAAAAAAAAAAAAAAAAAAAAAAAAAAAAAAAAAAAAAAAAAAAAAAAAAAAAAAAAAAAAAAAAAAAAAAAAAAAAAAAAAAAAAAAAAAAAAAAAAAAAAAAAAAAAAAAAAAAAAAAAAAAAAAAAAAAAAAAAAAAAAAAAAAAAAAAAAAAAAAAAAAAAAAAAAAAAAAAAAAAAAAAAAAAAAAAAAAAAAAAAAAAAAAAAAAAAAAAAAAAAAAAAAAAAAAAAAAAAAAAAAAAAAAAAAAAAAAAAAAAAAAAAAAAAAAAAAAAAAAAAAAAAAAAAAAAAAAAAAAAAAAAAAAAAAAAAAAAAAAAAAAAAAAAAAAAAAAAAAAAAAAAAAAAAAAAAAAAAAAAAAAAAAAAAAAAAAAAAAAAAAAAAAAAAAAAAAAAAAAAAAAAAAAAAAAAAAAAAAAAAAAAAAAAAAAAAAAAAAAAAAAAAAAAAAAAAAAAAAAAAAAAAAAAAAAAAAAAAAAAAAAAAAAAAAAAAAAAAAAAAAAAAAAAAAAAAAAAAAAAAAAAAAAAAAAAAAAAAAAAAAAAAAAAAAAAAAAAAAAAAAAAAAAAAAAAAAAAAAAAAAAAAAAAAAAAAAAAAAAAAAAAAAAAAAAAAAAAAAAAAAAAAAAAAAAAAAAAAAAAAAAAAAAAAAAAAAAAAAAAAAAAAAAAAAAAAAAAAAAAAAAAAAAAAAAAAAAAAAAAAAAAAAAAAAAAAAAAAAAAAAAAAAAAAAAAAAAAAAAAAAAAAAAAAAAAAAAAAAAAAAAAAAAAAAAAAAAAAAAAAAAAAAAAAAAAAAAAAAAAAAAAAAAAAAAAAAAAAAAAAAAAAAAAAAAAAAAAAAAAAAAAAAAAAAAAAAAAAAAAAAAAAAAAAAAAAAAAAAAAAAAAAAAAAAAAAAAAAAAAAAAAAAAAAAAAAAAAAAAAAAAAAAAAAAAAAAAAAAAAAAAAAAAAAAAAAAAAAAAAAAAAAAAAAAAAAAAAAAAAAAAAAAAAAAAAAAAAAAAAAAAAAAAAAAAAAAAAAAAAAAAAAAAAAAAAAAAAAAAAAAAAAAAAAAAAAAAAAAAAAAAAAAAAAAAAAAAAAAAAAAAAAAAAAAAAAAAAAAAAAAAAAAAAAAAAAAAAAAAAAAAAAAAAAAAAAAAAAAAAAAAAAAAAAAAAAAAAAAAAAAAAAAAAAAAAAAAAAAAAAAAAAAAAAAAAAAAAAAAAAAAAAAAAAAAAAAAAAAAAAAAAAAAAAAAAAAAAAAAAAAAAAAAAAAAAAAAAAAAAAAAAAAAAAAAAAAAAAAAAAAAAAAAAAAAAAAAAAAAAAAAAAAAAAAAAAAAAAAAAAAAAAAAAAAAAAAAAAAAAAAAAAAAAAAAAAAAAAAAAAAAAAAAAAAAAAAAAAAAAAAAAAAAAAAAAAAAAAAAAAAAAAAAAAAAAAAAAAAAAAAAAAAAAAAAAAAAAAAAAAAAAAAAAAAAAAAAAAAAAAAAAAAAAAAAAAAAAAAAAAAAAAAAAAAAAAAAAAAAAAAAAAAAAAAAAAAAAAAAAAAAAAAAAAAAAAAAAAAAAAAAAAAAAAAAAAAAAAAAAAAAAAAAAAAAAAAAAAAAAAAAAAAAAAAAAAAAAAAAAAAAAAAAAAAAAAAAAAAAAAAAAAAAAAAAAAAAAAAAAAAAAAAAAAAAAAAAAAAAAAAAAAAAAAAAAAAAAAAAAAAAAAAAAAAAAAAAAAAAAAAAAAAAAAAAAAAAAAAAAAAAAAAAAAAAAAAAAAAAAAAAAAAAAAAAAAAAAAAAAAAAAAAAAAAAAAAAAAAAAAAAAAAAAAAAAAAAAAAAAAAAAAAAAAAAAAAAAAAAAAAAAAAAAAAAAAAAAAAAAAAAAAAAAAAAAAAAAAAAAAAAAAAAAAAAAAAAAAAAAAAAAAAAAAAAAAAAAAAAAAAAAAAAAAAAAAAAAAAAAAAAAAAAAAAAAAAAAAAAAAAAAAAAAAAAAAAAAAAAAAAAAAAAAAAAAAAAAAAAAAAAAAAAAAAAAAAAAAAAAAAAAAAAAAAAAAAAAAAAAAAAAAAAAAAAAAAAAAAAAAAAAAAAAAAAAAAAAAAAAAAAAAAAAAAAAAAAAAAAAAAAAAAAAAAAAAAAAAAAAAAAAAAAAAAAAAAAAAAAAAAAAAAAAAAAAAAAAAAAAAAAAAAAAAAAAAAAAAAAAAAAAAAAAAAAAAAAAAAAAAAAAAAAAAAAAAAAAAAAAAAAAAAAAAAAAAAAAAAAAAAAAAAAAAAAAAAAAAAAAAAAAAAAAAAAAAAAAAAAAAAAAAAAAAAAAAAAAAAAAAAAAAAAAAAAAAAAAAAAAAAAAAAAAAAAAAAAAAAAAAAAAAAAAAAAAAAAAAAAAAAAAAAAAAAAAAAAAAAAAAAAAAAAAAAAAAAAAAAAAAAAAAAAAAAAAAAAAAAAAAAAAAAAAAAAAAAAAAAAAAAAAAAAAAAAAAAAAAAAAAAAAAAAAAAAAAAAAAAAAAAAAAAAAAAAAAAAAAAAAAAAAAAAAAAAAAAAAAAAAAAAAAAAAAAAAAAAAAAAAAAAAAAAAAAAAAAAAAAAAAAAAAAAAAAAAAAAAAAAAAAAAAAAAAAAAAAAAAAAAAAAAAAAAAAAAAAAAAAAAAAAAAAAAAAAAAAAAAAAAAAAAAAAAAAAAAAAAAAAAAAAAAAAAAAAAAAAAAAAAAAAAAAAAAAAAAAAAAAAAAAAAAAAAAAAAAAAAAAAAAAAAAAAAAAAAAAAAAAAAAAAAAAAAAAAAAAAAAAAAAAAAAAAAAAAAAAAAAAAAAAAAAAAAAAAAAAAAAAAAAAAAAAAAAAAAAAAAAAAAAAAAAAAAAAAAAAAAAAAAAAAAAAAAAAAAAAAAAAAAAAAAAAAAAAAAAAAAAAAAAAAAAAAAAAAAAAAAAAAAAAAAAAAAAAAAAAAAAAAAAAAAAAAAAAAAAAAAAAAAAAAAAAAAAAAAAAAAAAAAAAAAAAAAAAAAAAAAAAAAAAAAAAAAAAAAAAAAAAAAAAAAAAAAAAAAAAAAAAAAAAAAAAAAAAAAAAAAAAAAAAAAAAAAAAAAAAAAAAAAAAAAAAAAAAAAAAAAAAAAAAAAAAAAAAAAAAAAAAAAAAAAAAAAAAAAAAAAAAAAAAAAAAAAAAAAAAAAAAAAAAAAAAAAAAAAAAAAAAAAAAAAAAAAAAAAAAAAAAAAAAAAAAAAAAAAAAAAAAAAAAAAAAAAAAAAAAAAAAAAAAAAAAAAAAAAAAAAAAAAAAAAAAAAAAAAAAAAAAAAAAAAAAAAAAAAAAAAAAAAAAAAAAAAAAAAAAAAAAAAAAAAAAAAAAAAAAAAAAAAAAAAAAAAAAAAAAAAAAAAAAAAAAAAAAAAAAAAAAAAAAAAAAAAAAAAAAAAAAAAAAAAAAAAAAAAAAAAAAAAAAAAAAAAAAAAAAAAAAAAAAAAAAAAAAAAAAAAAAAAAAAAAAAAAAAAAAAAAAAAAAAAAAAAAAAAAAAAAAAAAAAAAAAAAAAAAAAAAAAAAAAAAAAAAAAAAAAAAAAAAAAAAAAAAAAAAAAAAAAAAAAAAAAAAAAAAAAAAAAAAAAAAAAAAAAAAAAAAAAAPZYQFO+pYLfFUMQPt4tV/S4R5YVluXucZJQcvx1Z8hl1qL6WiADMJmZl9zfT4OCwF/JofgFjL872U5W4M9rBRyJl2o=</c2pa:manifest></metadata>
<title id="t">Certifications &amp; Achievements</title>
<desc id="d">Deep Learning with PyTorch Bootcamp (OpenCV University), Machine Learning Foundations (AWS), Exploratory Data Analysis (FutureSkills Prime), PYTHON Programming (SKILL-India).</desc>
<style>
text{font-family:Inter,"Segoe UI",Roboto,"Helvetica Neue",Arial,sans-serif;font-weight:700;fill:#f2f5ff}
.mono{font-family:ui-monospace,SFMono-Regular,Menlo,Consolas,"Liberation Mono",monospace;font-weight:400}
.pulse{animation:pulse 2.4s ease-in-out infinite both}
@keyframes pulse{0%,100%{opacity:1}50%{opacity:.3}}
@media(prefers-reduced-motion:reduce){*{animation:none!important}}
</style>
<defs>
<linearGradient id="hairline"><stop stop-color="#247bff" stop-opacity=".7"/><stop offset=".5" stop-color="#567394" stop-opacity=".25"/><stop offset="1" stop-color="#ff354f" stop-opacity=".65"/></linearGradient>
<pattern id="dots" width="20" height="20" patternUnits="userSpaceOnUse"><circle cx="1" cy="1" r=".7" fill="#99b1db" opacity=".13"/></pattern>
</defs>
<rect x="1" y="1" width="1198" height="250" rx="22" fill="#070b16" stroke="url(#hairline)"/>
<rect x="2" y="2" width="1196" height="248" rx="21" fill="url(#dots)"/>
<text x="37.0" y="40" font-size="11" class="mono" letter-spacing="1.6" style="fill:#8e9db9">CERTIFICATIONS &amp; ACHIEVEMENTS</text>
<path d="M1090 24l9 0 -7 18h-9Z" fill="#ff354f"/><path d="M1102 24l9 0 -7 18h-9Z" fill="#ff354f"/><path d="M1114 24l9 0 -7 18h-9Z" fill="#ff354f"/>
<g>
<rect x="37.0" y="66" width="555" height="72" rx="12" fill="#0d182c" stroke="#284465"/>
<path d="M49.0 138 L91.0 138" fill="none" stroke="#ff354f" stroke-width="1.5"/>
<circle cx="73.0" cy="102.0" r="23" fill="#0d1729" stroke="#ff354f" stroke-opacity=".65"/>
<circle cx="73.0" cy="102.0" r="27" fill="none" stroke="#ff354f" opacity=".25" class="pulse" style="animation-delay:0.0s"/>
<g transform="translate(61.0 90.0)" fill="#f6c453"><g transform="translate(3.331 2.241) scale(0.03871)"><path d="M245.9-25.9a41.89 41.89 0 0 0-43.7 0C177.8-11 162.7-7 134.1-7.6 118.4-8 103.8.5 96.2 14.3 82.5 39.4 71.4 50.5 46.3 64.2c-13.8 7.5-22.2 22.2-21.9 37.9.7 28.6-3.4 43.7-18.3 68.1a41.89 41.89 0 0 0 0 43.7C21 238.3 25 253.4 24.4 282c-.4 15.7 8.1 30.3 21.9 37.9C68.4 332 79.6 342 91.4 361.4l-48.7 97.1c-5.9 11.9-1.1 26.3 10.7 32.2l86 43c11.5 5.7 25.5 1.4 31.7-9.8l52.8-95.1 52.8 95.1c6.2 11.2 20.2 15.6 31.7 9.8l86-43c11.9-5.9 16.7-20.3 10.7-32.2l-48.6-97.2c11.7-19.4 23-29.4 45.1-41.5 13.8-7.5 22.2-22.2 21.9-37.9-.7-28.6 3.4-43.7 18.3-68.1 8.2-13.4 8.2-30.3 0-43.7-14.9-24.4-18.9-39.5-18.3-68.1.4-15.7-8.1-30.3-21.9-37.9-25.1-13.7-36.2-24.8-49.9-49.9C344.2.4 329.5-8 313.8-7.7c-28.6.7-43.7-3.4-68.1-18.3zM224 96a96 96 0 1 1 0 192 96 96 0 1 1 0-192"/></g></g>
<text x="109.0" y="99.0" font-size="16">Deep Learning with PyTorch Bootcamp</text>
<text x="109.0" y="117.0" font-size="10.5" class="mono" letter-spacing=".8" style="fill:#8e9db9">OPENCV UNIVERSITY</text>
</g><g>
<rect x="608.0" y="66" width="555" height="72" rx="12" fill="#0d182c" stroke="#284465"/>
<path d="M620.0 138 L662.0 138" fill="none" stroke="#247bff" stroke-width="1.5"/>
<circle cx="644.0" cy="102.0" r="23" fill="#0d1729" stroke="#247bff" stroke-opacity=".65"/>
<circle cx="644.0" cy="102.0" r="27" fill="none" stroke="#247bff" opacity=".25" class="pulse" style="animation-delay:0.4s"/>
<g transform="translate(632.0 90.0)" fill="#f6c453"><g transform="translate(3.331 2.241) scale(0.03871)"><path d="M245.9-25.9a41.89 41.89 0 0 0-43.7 0C177.8-11 162.7-7 134.1-7.6 118.4-8 103.8.5 96.2 14.3 82.5 39.4 71.4 50.5 46.3 64.2c-13.8 7.5-22.2 22.2-21.9 37.9.7 28.6-3.4 43.7-18.3 68.1a41.89 41.89 0 0 0 0 43.7C21 238.3 25 253.4 24.4 282c-.4 15.7 8.1 30.3 21.9 37.9C68.4 332 79.6 342 91.4 361.4l-48.7 97.1c-5.9 11.9-1.1 26.3 10.7 32.2l86 43c11.5 5.7 25.5 1.4 31.7-9.8l52.8-95.1 52.8 95.1c6.2 11.2 20.2 15.6 31.7 9.8l86-43c11.9-5.9 16.7-20.3 10.7-32.2l-48.6-97.2c11.7-19.4 23-29.4 45.1-41.5 13.8-7.5 22.2-22.2 21.9-37.9-.7-28.6 3.4-43.7 18.3-68.1 8.2-13.4 8.2-30.3 0-43.7-14.9-24.4-18.9-39.5-18.3-68.1.4-15.7-8.1-30.3-21.9-37.9-25.1-13.7-36.2-24.8-49.9-49.9C344.2.4 329.5-8 313.8-7.7c-28.6.7-43.7-3.4-68.1-18.3zM224 96a96 96 0 1 1 0 192 96 96 0 1 1 0-192"/></g></g>
<text x="680.0" y="99.0" font-size="16">Machine Learning Foundations</text>
<text x="680.0" y="117.0" font-size="10.5" class="mono" letter-spacing=".8" style="fill:#8e9db9">AWS</text>
</g><g>
<rect x="37.0" y="154" width="555" height="72" rx="12" fill="#0d182c" stroke="#284465"/>
<path d="M49.0 226 L91.0 226" fill="none" stroke="#5b9fff" stroke-width="1.5"/>
<circle cx="73.0" cy="190.0" r="23" fill="#0d1729" stroke="#5b9fff" stroke-opacity=".65"/>
<circle cx="73.0" cy="190.0" r="27" fill="none" stroke="#5b9fff" opacity=".25" class="pulse" style="animation-delay:0.8s"/>
<g transform="translate(61.0 178.0)" fill="#f6c453"><g transform="translate(3.331 2.241) scale(0.03871)"><path d="M245.9-25.9a41.89 41.89 0 0 0-43.7 0C177.8-11 162.7-7 134.1-7.6 118.4-8 103.8.5 96.2 14.3 82.5 39.4 71.4 50.5 46.3 64.2c-13.8 7.5-22.2 22.2-21.9 37.9.7 28.6-3.4 43.7-18.3 68.1a41.89 41.89 0 0 0 0 43.7C21 238.3 25 253.4 24.4 282c-.4 15.7 8.1 30.3 21.9 37.9C68.4 332 79.6 342 91.4 361.4l-48.7 97.1c-5.9 11.9-1.1 26.3 10.7 32.2l86 43c11.5 5.7 25.5 1.4 31.7-9.8l52.8-95.1 52.8 95.1c6.2 11.2 20.2 15.6 31.7 9.8l86-43c11.9-5.9 16.7-20.3 10.7-32.2l-48.6-97.2c11.7-19.4 23-29.4 45.1-41.5 13.8-7.5 22.2-22.2 21.9-37.9-.7-28.6 3.4-43.7 18.3-68.1 8.2-13.4 8.2-30.3 0-43.7-14.9-24.4-18.9-39.5-18.3-68.1.4-15.7-8.1-30.3-21.9-37.9-25.1-13.7-36.2-24.8-49.9-49.9C344.2.4 329.5-8 313.8-7.7c-28.6.7-43.7-3.4-68.1-18.3zM224 96a96 96 0 1 1 0 192 96 96 0 1 1 0-192"/></g></g>
<text x="109.0" y="187.0" font-size="16">Exploratory Data Analysis</text>
<text x="109.0" y="205.0" font-size="10.5" class="mono" letter-spacing=".8" style="fill:#8e9db9">FUTURESKILLS PRIME</text>
</g><g>
<rect x="608.0" y="154" width="555" height="72" rx="12" fill="#0d182c" stroke="#284465"/>
<path d="M620.0 226 L662.0 226" fill="none" stroke="#a0caff" stroke-width="1.5"/>
<circle cx="644.0" cy="190.0" r="23" fill="#0d1729" stroke="#a0caff" stroke-opacity=".65"/>
<circle cx="644.0" cy="190.0" r="27" fill="none" stroke="#a0caff" opacity=".25" class="pulse" style="animation-delay:1.2000000000000002s"/>
<g transform="translate(632.0 178.0)" fill="#f6c453"><g transform="translate(3.331 2.241) scale(0.03871)"><path d="M245.9-25.9a41.89 41.89 0 0 0-43.7 0C177.8-11 162.7-7 134.1-7.6 118.4-8 103.8.5 96.2 14.3 82.5 39.4 71.4 50.5 46.3 64.2c-13.8 7.5-22.2 22.2-21.9 37.9.7 28.6-3.4 43.7-18.3 68.1a41.89 41.89 0 0 0 0 43.7C21 238.3 25 253.4 24.4 282c-.4 15.7 8.1 30.3 21.9 37.9C68.4 332 79.6 342 91.4 361.4l-48.7 97.1c-5.9 11.9-1.1 26.3 10.7 32.2l86 43c11.5 5.7 25.5 1.4 31.7-9.8l52.8-95.1 52.8 95.1c6.2 11.2 20.2 15.6 31.7 9.8l86-43c11.9-5.9 16.7-20.3 10.7-32.2l-48.6-97.2c11.7-19.4 23-29.4 45.1-41.5 13.8-7.5 22.2-22.2 21.9-37.9-.7-28.6 3.4-43.7 18.3-68.1 8.2-13.4 8.2-30.3 0-43.7-14.9-24.4-18.9-39.5-18.3-68.1.4-15.7-8.1-30.3-21.9-37.9-25.1-13.7-36.2-24.8-49.9-49.9C344.2.4 329.5-8 313.8-7.7c-28.6.7-43.7-3.4-68.1-18.3zM224 96a96 96 0 1 1 0 192 96 96 0 1 1 0-192"/></g></g>
<text x="680.0" y="187.0" font-size="16">PYTHON Programming</text>
<text x="680.0" y="205.0" font-size="10.5" class="mono" letter-spacing=".8" style="fill:#8e9db9">SKILL-INDIA</text>
</g>
</svg>